PathFileType	3	(X/Y/Z)	D:\minhoCalibration\240510\subject5_KPNP\preferred\preferred02.trc
DataRate	CameraRate	NumFrames	NumMarkers	Units	OrigDataRate	OrigDataStartFrame	OrigNumFrames
200.0	200.0	33	10	mm	200.0	323	151	
Frame#	Time	Left_Ankle_Outer1			Left_Ankle_Inner1			Left_Knee_Outer1			Left_Knee_Inner1			Left_Wrist1			Right_Wrist1			Right_Knee_Inner1			Right_Knee_Outer1			Right_Ankle_Inner1			Right_Ankle_Outer1			
		X1	Y1	Z1	X2	Y2	Z2	X3	Y3	Z3	X4	Y4	Z4	X5	Y5	Z5	X6	Y6	Z6	X7	Y7	Z7	X8	Y8	Z8	X9	Y9	Z9	X10	Y10	Z10	
323	1.605	-649.12402	81.311707	-610.89819	-674.87225	91.87458	-564.66504	-496.58621	532.7226	-598.03796	-547.81604	520.97363	-518.02759	-486.05035	1007.3681	-706.84149	-695.93536	1151.9901	-497.40027	-576.46326	822.29254	-112.01937	-645.12177	880.01355	-103.17068	-642.36102	469.30469	150.01431	-736.76379	490.63315	144.65689
324	1.61	-648.72943	81.172707	-611.33722	-674.41248	91.884453	-565.16406	-496.85919	532.6308	-598.28424	-548.6319	521.06152	-518.94879	-484.19312	1008.5174	-706.18878	-698.69061	1150.5919	-495.10913	-580.56616	814.41766	-115.5685	-649.64648	871.63336	-106.18884	-650.52527	455.04245	137.47508	-744.05847	476.3782	130.44063
325	1.615	-648.40283	81.170753	-611.95996	-674.40222	92.036774	-565.7713	-496.68365	532.72437	-598.68372	-549.33698	521.25031	-519.75098	-482.09406	1009.5929	-705.74707	-699.76764	1147.2115	-500.30685	-584.81793	806.25543	-119.2886	-654.15826	862.72668	-109.97022	-657.54413	440.44934	123.37185	-751.70831	461.62741	115.66016
326	1.62	-648.14893	80.950195	-612.38947	-673.06488	91.157936	-568.26086	-496.521	532.65692	-599.18939	-549.86279	521.26965	-520.69171	-480.30029	1010.5942	-705.11884	-701.55157	1144.938	-501.34109	-588.89905	797.8136	-123.28429	-658.55823	853.76312	-113.96358	-665.36981	426.11935	109.91159	-759.0249	447.70016	100.84915
327	1.625	-647.80988	80.646988	-612.74554	-673.88452	91.729439	-566.97412	-496.30838	532.52014	-599.68121	-550.36737	521.32446	-521.60376	-479.10565	1011.2214	-704.16455	-703.31073	1142.6493	-502.32953	-593.00073	789.13446	-127.63241	-662.99176	844.58807	-118.0857	-671.86993	412.68399	95.105713	-766.24725	433.97345	85.913086
328	1.63	-647.49731	80.478615	-613.1781	-674.15192	91.86499	-567.63806	-496.05838	532.4057	-600.15845	-550.77014	521.20074	-522.45587	-477.03287	1012.1081	-703.76111	-704.9071	1140.3295	-503.34149	-597.03912	780.26959	-132.2858	-667.21069	835.36664	-122.60339	-680.17078	397.83542	80.856377	-773.39136	420.58618	70.749825
329	1.635	-647.20575	80.279877	-613.55719	-673.65558	91.39286	-568.15991	-495.7226	532.30829	-600.69147	-551.09558	521.14404	-523.29437	-475.64249	1012.6119	-703.02148	-706.43628	1138.0079	-504.43204	-601.00983	771.29999	-137.20764	-671.88623	826.0282	-126.85454	-687.44641	383.98016	66.05867	-780.2431	407.35526	55.045605
330	1.64	-647.01093	80.096771	-613.91913	-672.33722	91.038666	-570.02209	-495.34195	532.24316	-601.16803	-551.41742	521.0484	-524.03857	-474.03912	1013.0868	-702.29675	-707.92206	1135.8018	-505.45401	-605.18817	762.22528	-142.47168	-675.93146	816.20361	-131.83823	-694.24347	370.92746	50.814503	-787.30988	394.33957	39.619701
331	1.645	-646.70923	79.995377	-614.19861	-672.50635	90.895195	-570.16504	-495.21255	531.9234	-601.56732	-551.76215	520.94769	-524.72717	-472.50958	1013.5441	-701.55927	-709.30908	1133.8452	-506.16843	-609.37335	753.13971	-147.86879	-680.17474	806.68909	-137.06837	-700.87665	358.06488	35.472004	-793.95081	381.6322	23.849056
332	1.65	-646.64825	79.86129	-614.36328	-673.36206	91.14782	-569.1369	-495.08716	531.72803	-601.79755	-552.19501	520.90869	-525.38977	-470.99652	1013.9059	-700.84601	-711.35596	1131.8513	-505.17972	-613.6582	744.06555	-153.6196	-684.98975	797.1333	-142.11621	-707.70038	344.80087	19.470692	-800.62689	369.1861	7.8593297
333	1.655	-646.61053	79.780624	-614.42548	-673.29156	91.214439	-569.54724	-494.75192	531.68683	-602.02472	-552.77887	520.87421	-525.8642	-469.48303	1014.1493	-700.02979	-711.83649	1128.6067	-509.05817	-618.05664	734.83136	-159.36201	-689.29193	787.43298	-148.24179	-714.89966	331.60196	3.9405682	-806.89429	356.82611	-8.4243488
334	1.66	-646.4834	79.763321	-614.51385	-673.35138	91.079674	-569.83569	-494.758	531.60461	-602.03906	-553.49756	520.9267	-526.3515	-467.96536	1014.4586	-699.15967	-712.98865	1126.2222	-510.21808	-622.34003	725.86505	-165.60014	-693.99475	777.66235	-154.4162	-720.87067	319.50369	-12.453178	-812.95691	344.76627	-24.964954
335	1.665	-646.46368	79.804291	-614.52228	-673.60822	91.106728	-569.55243	-494.7533	531.55701	-601.94641	-554.20599	520.92047	-526.8147	-466.52209	1014.6927	-698.15295	-714.09259	1123.644	-511.44189	-626.52875	716.9845	-172.29192	-698.62329	768.1189	-160.80476	-726.72479	307.27231	-29.212116	-818.62958	332.97119	-41.925987
336	1.67	-646.47131	79.715294	-614.56598	-673.95422	91.09938	-569.91449	-495.0748	531.37469	-601.72894	-555.02484	521.02905	-527.13141	-465.0744	1015.0063	-697.16992	-716.3573	1121.8221	-509.9426	-630.7879	708.2049	-179.1114	-703.29553	758.92932	-167.47266	-732.88855	295.25946	-45.600971	-824.3501	321.07578	-59.259281
337	1.675	-646.47546	79.6567	-614.52637	-674.20642	90.930397	-570.57135	-494.96396	531.56897	-601.60913	-556.35999	521.28461	-527.70227	-463.47412	1015.3745	-696.17267	-716.68402	1119.0963	-513.25311	-634.99054	699.47339	-186.0939	-708.26184	749.32971	-174.04669	-737.83911	283.94424	-62.915146	-829.55554	310.13242	-76.388702
338	1.68	-646.50226	79.467323	-614.61212	-674.34778	90.927536	-570.60577	-495.28369	531.47931	-601.37726	-557.60895	521.57245	-528.21918	-461.78189	1015.9826	-695.00525	-717.93732	1116.8495	-514.36182	-639.27588	690.91547	-193.39777	-712.79077	740.26733	-181.84637	-743.41962	272.08252	-80.038445	-834.6543	298.83459	-95.502693
339	1.685	-646.45148	79.324524	-614.62036	-674.54224	90.861336	-570.62347	-495.39001	531.50763	-601.159	-558.77399	521.69958	-528.97516	-460.26459	1016.4251	-693.77539	-719.38373	1114.7086	-515.40118	-643.5592	682.51428	-200.88986	-717.28351	731.1084	-189.77271	-748.30963	261.16855	-97.362373	-839.59302	287.88474	-113.3065
340	1.69	-646.47699	79.131973	-614.80206	-674.45081	90.755592	-570.94897	-495.42819	531.62976	-601.02838	-560.05884	521.8595	-529.66699	-458.81241	1016.9515	-692.39233	-720.72632	1112.4901	-516.60352	-647.80609	674.16852	-208.61446	-721.85059	722.50372	-197.78352	-752.98395	250.43684	-114.81589	-844.2392	277.39905	-131.67311
341	1.695	-646.28271	78.963356	-614.99738	-674.51941	90.500351	-571.24347	-495.58203	531.53168	-601.04034	-561.19562	521.96283	-530.34186	-457.4505	1017.5115	-690.88837	-723.08838	1110.8654	-515.36359	-652.02142	666.02679	-216.36075	-726.70331	714.0719	-205.66496	-757.36926	239.87863	-132.5593	-848.42609	267.04272	-150.2478
342	1.7	-646.0896	78.740273	-615.20221	-674.46228	90.521362	-571.54022	-495.87842	531.48804	-600.96912	-562.35583	521.97351	-531.25903	-455.96118	1018.2684	-689.29187	-723.1543	1107.9	-519.9917	-656.23651	658.13995	-224.40544	-731.21094	705.90601	-214.30042	-761.55798	230.26765	-149.93517	-852.41644	257.13724	-169.38876
343	1.705	-645.95892	78.448547	-615.51508	-674.00946	90.244743	-572.6145	-496.03195	531.48132	-601.08508	-563.70581	521.82947	-532.52454	-454.64035	1018.9923	-687.65607	-725.19586	1105.4937	-520.54474	-660.45764	650.28491	-232.54025	-735.95807	697.46875	-222.58208	-765.26202	220.54692	-167.97369	-855.94189	247.44073	-188.30017
344	1.71	-645.67841	78.163826	-615.82996	-673.8479	90.030952	-573.13684	-496.21991	531.41504	-601.26117	-563.96161	522.45044	-532.50293	-453.29749	1019.8152	-685.97687	-728.03912	1103.5195	-519.42065	-664.75012	642.62634	-240.82416	-740.40216	689.56909	-231.36298	-768.83533	211.22363	-185.99953	-859.34625	237.98126	-206.97054
345	1.715	-645.57513	77.840355	-616.12585	-674.29321	89.948418	-573.07452	-496.39883	531.31836	-601.38416	-564.99689	521.75012	-534.9696	-452.18912	1020.3953	-684.15198	-728.39874	1100.4889	-523.83167	-668.92822	635.05682	-249.11142	-744.84174	681.63934	-240.14597	-772.38391	202.37955	-203.36955	-861.98853	228.80844	-226.04193
346	1.72	-645.39648	77.559044	-616.43018	-673.82605	89.588081	-573.19904	-496.3772	531.2605	-601.56226	-565.91937	521.64551	-535.81042	-451.0527	1021.1582	-682.33142	-731.1394	1098.4226	-522.96582	-673.18964	627.5769	-257.59665	-748.90027	673.7229	-249.35107	-775.30463	193.79048	-221.57448	-864.51947	220.1145	-245.25357
347	1.725	-645.23676	77.201035	-616.711	-673.77039	89.359123	-573.55157	-496.55475	531.07166	-601.68732	-566.77667	521.56506	-536.71729	-449.99786	1021.8004	-680.45453	-731.7403	1095.1562	-527.33923	-677.35968	620.18933	-266.23465	-753.45703	665.74127	-258.25375	-778.37329	185.32292	-239.51936	-867.02966	211.85115	-264.91058
348	1.73	-645.03326	76.977882	-616.95081	-673.67798	89.200073	-573.78131	-496.70624	530.94293	-601.73383	-567.56189	522.05658	-535.81866	-449.07755	1022.4067	-678.61615	-733.72144	1092.5111	-528.79657	-680.97095	612.89856	-274.68765	-757.66321	658.15613	-267.21225	-781.19604	177.39406	-257.33002	-869.25336	203.86642	-284.83115
349	1.735	-644.99878	76.78817	-617.25806	-673.69922	89.00383	-574.02844	-496.79358	530.74017	-601.74219	-568.34692	521.94122	-536.41211	-448.30103	1022.9092	-676.6571	-736.37329	1090.0242	-528.61737	-684.84125	605.57031	-283.72156	-761.32208	650.33295	-277.20871	-783.62903	169.77419	-275.54605	-870.94122	196.32703	-304.57599
350	1.74	-645.02435	76.546776	-617.46075	-672.68304	88.507347	-575.61737	-497.00928	530.55542	-601.5921	-569.12231	521.19025	-538.93396	-447.56403	1023.509	-674.74554	-738.33673	1087.7631	-529.87579	-688.53186	598.38232	-292.84601	-764.9856	643.0744	-286.88092	-785.96094	162.47227	-293.58121	-872.48761	189.13728	-324.40903
351	1.745	-645.02783	76.184273	-617.5307	-673.73676	88.561966	-574.2088	-497.09753	530.45532	-601.35699	-569.83704	521.72723	-537.28876	-446.96884	1023.9796	-672.78137	-739.54541	1084.4598	-533.19702	-692.04437	591.31427	-302.39316	-768.7796	635.89325	-296.62106	-787.93445	155.61757	-311.82562	-873.69574	182.39482	-344.20886
352	1.75	-644.93134	76.026932	-617.62781	-675.76886	88.353149	-577.47803	-497.30966	530.263	-600.94226	-570.64227	521.49396	-537.52148	-446.49036	1024.4014	-670.85388	-740.5708	1081.4999	-536.74011	-695.51019	584.62146	-312.03934	-772.05774	628.99103	-306.79684	-789.60754	149.15456	-330.03818	-874.63098	175.97702	-364.05984
353	1.755	-645.08191	75.809128	-617.57849	-673.20428	90.00724	-569.05597	-497.57779	530.10498	-600.50677	-571.46564	520.64661	-540.0766	-446.0466	1024.7568	-668.97351	-743.31433	1079.6226	-536.77478	-697.62427	577.86725	-320.48755	-775.18884	622.25623	-317.35571	-791.35364	143.17372	-348.66324	-875.43671	170.05031	-384.09634
354	1.76	-645.15796	75.64846	-617.4873	-673.71826	87.690994	-573.10925	-497.87012	529.95251	-599.9043	-572.28436	520.53381	-540.33081	-445.81927	1024.9806	-667.05457	-746.24792	1076.921	-538.05359	-701.19794	571.65833	-331.92297	-778.45172	616.21368	-327.40842	-792.6167	137.14133	-367.14713	-875.71448	164.48743	-403.79712
355	1.765	-645.2547	75.357529	-617.45819	-673.86285	87.413116	-573.37415	-498.08102	529.75562	-599.27795	-573.15009	520.41901	-540.50635	-445.64059	1025.1014	-665.24255	-747.11285	1074.6553	-540.93616	-704.1792	565.84528	-342.63947	-781.4834	610.03406	-338.23593	-793.41736	131.76729	-385.50168	-876.02252	159.44194	-423.87149
